HIERARCHY
ROOT Hips
{
 OFFSET 0.000000 0.000000 0.000000
 CHANNELS 6 Xposition Yposition Zposition Yrotation Xrotation Zrotation
 JOINT Chest
 {
  OFFSET 0.000000 9.585900 0.002600
  CHANNELS 3 Yrotation Xrotation Zrotation
  JOINT Chest2
  {
   OFFSET 0.000000 9.601200 -0.005300
   CHANNELS 3 Yrotation Xrotation Zrotation
   JOINT Chest3
   {
    OFFSET 0.000000 9.561800 0.000000
    CHANNELS 3 Yrotation Xrotation Zrotation
    JOINT Chest4
    {
     OFFSET 0.000000 9.552100 0.000000
     CHANNELS 3 Yrotation Xrotation Zrotation
     JOINT Neck
     {
      OFFSET 0.000000 14.453000 0.000000
      CHANNELS 3 Yrotation Xrotation Zrotation
      JOINT Head
      {
       OFFSET 0.000000 8.936500 -0.011300
       CHANNELS 3 Yrotation Xrotation Zrotation
       End Site
       {
        OFFSET 0.000000 17.073600 -0.006000
       }
      }
     }
     JOINT RightCollar
     {
      OFFSET -2.921100 9.558500 0.000000
      CHANNELS 3 Yrotation Xrotation Zrotation
      JOINT RightShoulder
      {
       OFFSET -13.519700 0.000000 0.000000
       CHANNELS 3 Yrotation Xrotation Zrotation
       JOINT RightElbow
       {
        OFFSET 0.000000 -29.696600 0.000000
        CHANNELS 3 Yrotation Xrotation Zrotation
        JOINT RightWrist
        {
         OFFSET 0.000000 -24.004700 0.000000
         CHANNELS 3 Yrotation Xrotation Zrotation
         End Site
         {
          OFFSET 0.000000 -17.728500 0.000000
         }
        }
       }
      }
     }
     JOINT LeftCollar
     {
      OFFSET 2.921100 9.558500 0.000000
      CHANNELS 3 Yrotation Xrotation Zrotation
      JOINT LeftShoulder
      {
       OFFSET 13.519700 0.000000 0.000000
       CHANNELS 3 Yrotation Xrotation Zrotation
       JOINT LeftElbow
       {
        OFFSET 0.000000 -29.696600 0.000000
        CHANNELS 3 Yrotation Xrotation Zrotation
        JOINT LeftWrist
        {
         OFFSET 0.000000 -24.004700 0.000000
         CHANNELS 3 Yrotation Xrotation Zrotation
         End Site
         {
          OFFSET 0.000000 -17.728500 0.000000
         }
        }
       }
      }
     }
    }
   }
  }
 }
 JOINT RightHip
 {
  OFFSET -7.771700 -0.012900 -0.001300
  CHANNELS 3 Yrotation Xrotation Zrotation
  JOINT RightKnee
  {
   OFFSET 0.000000 -40.869800 0.001200
   CHANNELS 3 Yrotation Xrotation Zrotation
   JOINT RightAnkle
   {
    OFFSET 0.000000 -39.717900 0.002100
    CHANNELS 3 Yrotation Xrotation Zrotation
    JOINT RightToe
    {
     OFFSET 0.000000 -4.965400 11.033500
     CHANNELS 3 Yrotation Xrotation Zrotation
     End Site
     {
      OFFSET 0.000000 -1.423100 5.872300
     }
    }
   }
  }
 }
 JOINT LeftHip
 {
  OFFSET 7.771700 -0.012900 -0.001300
  CHANNELS 3 Yrotation Xrotation Zrotation
  JOINT LeftKnee
  {
   OFFSET 0.000000 -40.869800 0.001200
   CHANNELS 3 Yrotation Xrotation Zrotation
   JOINT LeftAnkle
   {
    OFFSET 0.000000 -39.717900 0.002100
    CHANNELS 3 Yrotation Xrotation Zrotation
    JOINT LeftToe
    {
     OFFSET 0.000000 -4.965400 11.033500
     CHANNELS 3 Yrotation Xrotation Zrotation
     End Site
     {
      OFFSET 0.000000 -1.423100 5.872300
     }
    }
   }
  }
 }
}
MOTION
Frames: 12
Frame Time: 0.008333
0.000000 85.388000 0.000000 0.000000 -5.767877 0.000000 0.000000 11.653817 0.000000 0.000000 -5.885947 0.000000 0.000000 -0.000000 0.000000 0.000000 -0.000000 0.000000 0.000000 12.528835 0.000000 0.000000 0.711642 0.000000 0.000000 -0.000000 0.000000 0.000000 0.000000 -90.000000 0.000000 -2.309062 0.000000 0.000000 2.309062 0.000000 0.000000 -0.000000 0.000000 0.000000 -0.000000 90.000000 0.000000 -2.309062 0.000000 0.000000 2.309062 0.000000 0.000000 8.520406 0.000000 0.000000 1.905762 0.000000 -0.000000 -4.658285 0.000000 0.000000 -0.000000 0.000000 0.000000 8.520406 0.000000 0.000000 1.905762 0.000000 -0.000000 -4.658285 0.000000 0.000000 -0.000000 0.000000
-33.748566 57.614331 22.975315 160.410142 -6.452504 0.231253 3.246495 6.425055 0.942864 0.129506 0.279299 0.004961 0.227165 0.490128 0.009067 2.886290 6.175784 0.254701 1.049008 18.955967 -1.145327 2.283416 -0.591199 -2.438219 3.262411 8.458946 1.232080 -9.379140 -9.855637 -6.308320 179.875594 -82.956439 -164.578341 -2.725562 6.221584 -32.066527 -6.170020 8.449551 -2.275748 16.787910 -8.233257 1.773359 123.508685 -80.571512 -139.180791 -0.491307 7.206656 18.020365 -13.452702 -65.488616 7.818019 -37.327292 72.017961 -38.549746 -3.520396 -7.474393 -0.520385 -0.329945 0.738111 -0.150407 0.917867 -67.973819 15.639433 40.162216 64.822564 33.061057 -18.116473 -9.533447 4.425842 -0.092250 -0.904674 -0.057236
-33.748939 57.614056 22.972221 160.419884 -6.462060 0.240911 3.235949 6.431925 0.931018 0.129626 0.278926 0.004788 0.231727 0.484022 0.004335 2.884677 6.180831 0.258969 1.052154 18.934200 -1.154088 2.275607 -0.581361 -2.424956 3.265457 8.452428 1.223394 -9.382095 -9.847321 -6.319845 179.929655 -82.968032 -164.635932 -2.731631 6.218113 -32.069576 -6.166746 8.442100 -2.279078 16.779083 -8.231897 1.784166 123.492007 -80.576571 -139.157545 -0.490321 7.202272 18.014076 -13.440754 -65.482921 7.789949 -37.350186 72.025290 -38.570175 -3.521878 -7.485440 -0.518641 -0.315467 0.740230 -0.152860 0.939814 -67.962359 15.610377 40.155665 64.822236 33.058456 -18.161831 -9.531581 4.423736 -0.065171 -0.900917 -0.050946
-33.749395 57.613391 22.971283 160.419816 -6.458557 0.247809 3.239264 6.423248 0.920512 0.131691 0.277085 0.001370 0.228117 0.488453 0.008195 2.893065 6.171485 0.255371 1.046642 18.937787 -1.150381 2.270167 -0.581012 -2.417517 3.257298 8.455019 1.223947 -9.381754 -9.842873 -6.330012 179.813659 -82.969409 -164.507356 -2.746762 6.218873 -32.089654 -6.173212 8.442710 -2.277906 16.775020 -8.224513 1.793904 123.516792 -80.575421 -139.180700 -0.490999 7.200774 18.006826 -13.432980 -65.488948 7.778702 -37.351000 72.028120 -38.571701 -3.521995 -7.487079 -0.517648 -0.319140 0.741863 -0.152765 0.962011 -67.966615 15.584994 40.159229 64.820586 33.066365 -18.167001 -9.528573 4.423288 -0.115236 -0.898555 -0.058123
-33.749470 57.612637 22.970020 160.418813 -6.457812 0.253397 3.241951 6.421043 0.911079 0.129989 0.278286 0.004440 0.228154 0.488349 0.008097 2.898420 6.165273 0.246909 1.046069 18.939309 -1.142205 2.266747 -0.578665 -2.412465 3.249614 8.451928 1.227370 -9.377345 -9.837403 -6.339663 179.838494 -82.969627 -164.525435 -2.732118 6.224019 -32.081843 -6.176607 8.444882 -2.271186 16.769814 -8.229721 1.793288 123.534526 -80.580570 -139.196148 -0.492764 7.201987 17.994353 -13.432168 -65.491355 7.773030 -37.350612 72.031167 -38.572717 -3.519164 -7.489249 -0.515108 -0.322931 0.743767 -0.155339 0.971358 -67.965204 15.575989 40.163135 64.819707 33.066064 -18.163304 -9.529155 4.422692 -0.104152 -0.893455 -0.054980
-33.748729 57.611783 22.969273 160.415013 -6.456784 0.253968 3.250253 6.411478 0.907662 0.126918 0.283117 0.006856 0.228503 0.487621 0.007867 2.903542 6.160098 0.244712 1.041681 18.947045 -1.137627 2.265578 -0.577402 -2.411032 3.241613 8.456255 1.229279 -9.375181 -9.833895 -6.343878 179.827119 -82.968750 -164.510929 -2.736367 6.224888 -32.082614 -6.181024 8.450044 -2.270510 16.762658 -8.237757 1.790540 123.547054 -80.586529 -139.206800 -0.494545 7.205635 17.977765 -13.430192 -65.496969 7.769840 -37.357424 72.038274 -38.576679 -3.507177 -7.482141 -0.514511 -0.336197 0.736328 -0.157525 0.966201 -67.965257 15.586463 40.180444 64.817160 33.075684 -18.151424 -9.526737 4.422168 -0.124826 -0.892715 -0.056084
-33.749092 57.610806 22.968990 160.416979 -6.452725 0.259650 3.249338 6.405300 0.900447 0.131327 0.275815 0.002942 0.225087 0.491012 0.010056 2.905901 6.151577 0.230196 1.041962 18.956173 -1.122092 2.262401 -0.569793 -2.402115 3.238353 8.465117 1.245887 -9.373053 -9.830146 -6.348307 179.854398 -82.969435 -164.539425 -2.728534 6.221117 -32.065577 -6.183149 8.457000 -2.257575 16.760679 -8.232354 1.795558 123.567453 -80.582708 -139.230350 -0.496977 7.209963 17.961939 -13.422840 -65.505454 7.755394 -37.361749 72.043564 -38.574338 -3.504019 -7.482035 -0.525286 -0.322274 0.737087 -0.149968 0.973422 -67.970904 15.580493 40.192707 64.818616 33.080658 -18.158949 -9.519170 4.425290 -0.133023 -0.896825 -0.057545
-33.749628 57.609902 22.968554 160.415109 -6.451545 0.267595 3.252370 6.402466 0.891575 0.132950 0.275339 0.002590 0.225272 0.488810 0.008215 2.905858 6.154492 0.226411 1.038467 18.956702 -1.119333 2.257285 -0.560045 -2.389514 3.236540 8.459301 1.248186 -9.369155 -9.831552 -6.354468 179.856678 -82.979654 -164.545480 -2.727944 6.217748 -32.050416 -6.184032 8.444658 -2.255074 16.758111 -8.227135 1.799740 123.553849 -80.585431 -139.223217 -0.500766 7.213009 17.954190 -13.405262 -65.515271 7.735298 -37.361048 72.054147 -38.563406 -3.519743 -7.474244 -0.541887 -0.299033 0.728552 -0.140845 1.002425 -67.972773 15.556681 40.195154 64.819962 33.083254 -18.166174 -9.519428 4.423570 -0.117927 -0.894704 -0.053044
-33.748940 57.609165 22.967814 160.408611 -6.457227 0.270158 3.266131 6.403802 0.888465 0.130141 0.277706 0.003335 0.221745 0.488749 0.008612 2.909257 6.157163 0.221754 1.034080 18.966428 -1.117509 2.246236 -0.546481 -2.373798 3.234275 8.452769 1.249680 -9.344346 -9.840595 -6.373343 179.919653 -83.002479 -164.629435 -2.733942 6.207727 -32.049792 -6.189031 8.435150 -2.252999 16.754357 -8.222072 1.804649 123.539381 -80.583978 -139.211637 -0.505547 7.215044 17.956854 -13.411157 -65.512100 7.745696 -37.364793 72.055799 -38.570386 -3.522038 -7.471049 -0.550754 -0.282420 0.725559 -0.135228 1.033975 -67.966112 15.538420 40.182551 64.822482 33.074838 -18.165704 -9.530767 4.425030 -0.106879 -0.884473 -0.051567
-33.747345 57.608490 22.968022 160.405363 -6.462128 0.265439 3.273079 6.405832 0.892288 0.130172 0.277883 0.003176 0.227246 0.490030 0.008468 2.903688 6.158193 0.218238 1.031770 18.972018 -1.112587 2.245906 -0.548553 -2.371213 3.231726 8.444030 1.251175 -9.328402 -9.838300 -6.379808 179.902140 -83.013321 -164.622549 -2.740708 6.202107 -32.053298 -6.192980 8.412629 -2.254891 16.756839 -8.205948 1.811128 123.534281 -80.589826 -139.211619 -0.510802 7.211950 17.933132 -13.422985 -65.506303 7.760205 -37.364032 72.056254 -38.570792 -3.507252 -7.470004 -0.554422 -0.289958 0.724909 -0.134267 1.031140 -67.961506 15.545906 40.182313 64.823042 33.075252 -18.136135 -9.538934 4.423462 -0.112825 -0.877831 -0.049932
-33.747952 57.607898 22.968267 160.403028 -6.464949 0.272705 3.276235 6.406187 0.883633 0.130200 0.278808 0.003601 0.226294 0.489521 0.007592 2.905482 6.158529 0.214327 1.030604 18.976359 -1.106142 2.240541 -0.533862 -2.361579 3.226328 8.418698 1.253866 -9.309809 -9.818984 -6.387326 179.915762 -83.028340 -164.645067 -2.733718 6.200655 -32.051832 -6.193737 8.410282 -2.251698 16.751258 -8.205430 1.812024 123.521326 -80.592651 -139.195986 -0.509291 7.216898 17.900652 -13.410424 -65.505389 7.745968 -37.364023 72.055208 -38.565849 -3.514730 -7.473119 -0.560497 -0.285548 0.729113 -0.133391 1.053633 -67.957718 15.524545 40.180447 64.822603 33.072941 -18.128017 -9.541130 4.424432 -0.138712 -0.876096 -0.055531
-33.748932 57.607405 22.968818 160.398574 -6.467456 0.281246 3.279851 6.406066 0.874448 0.130824 0.281294 0.004382 0.228559 0.487632 0.005786 2.904104 6.159442 0.213299 1.029523 18.979367 -1.103193 2.232211 -0.521111 -2.350490 3.225767 8.413492 1.257004 -9.302558 -9.816481 -6.390195 179.918080 -83.041184 -164.646078 -2.733638 6.212407 -32.053098 -6.192333 8.407959 -2.253071 16.733086 -8.209620 1.800556 123.516956 -80.607514 -139.199082 -0.510724 7.227295 17.903168 -13.420910 -65.504515 7.752567 -37.361408 72.053196 -38.563016 -3.525631 -7.475303 -0.576889 -0.272550 0.731744 -0.126611 1.078349 -67.954613 15.503795 40.175746 64.827790 33.060273 -18.104714 -9.541962 4.437632 -0.159955 -0.877783 -0.063839
